<mxfile host="Electron" modified="2023-12-07T11:20:32.816Z" agent="Mozilla/5.0 (Windows NT 10.0; Win64; x64) AppleWebKit/537.36 (KHTML, like Gecko) draw.io/22.1.2 Chrome/114.0.5735.289 Electron/25.9.4 Safari/537.36" etag="vxAaEWItY89LhHSn3ttF" version="22.1.2" type="device">
  <diagram name="Page-1" id="4Vg1OiWSivnJI_nTH19_">
    <mxGraphModel dx="1341" dy="829" grid="1" gridSize="10" guides="1" tooltips="1" connect="1" arrows="1" fold="1" page="1" pageScale="1" pageWidth="1169" pageHeight="827" math="0" shadow="0">
      <root>
        <mxCell id="0" />
        <mxCell id="1" parent="0" />
        <mxCell id="WeHE-zejKHq6CL1Z7IIi-1" value="&lt;p style=&quot;margin:0px;margin-top:4px;margin-left:10px;text-align:left;&quot;&gt;&lt;b&gt;bdd&lt;/b&gt;   Notbremsung&lt;/p&gt;" style="html=1;shape=mxgraph.sysml.package;labelX=120;align=left;spacingLeft=10;overflow=fill;recursiveResize=0;" vertex="1" parent="1">
          <mxGeometry x="30" y="40" width="1050" height="670" as="geometry" />
        </mxCell>
        <mxCell id="WeHE-zejKHq6CL1Z7IIi-7" value="&lt;p style=&quot;margin:0px;margin-top:4px;text-align:center;&quot;&gt;&amp;lt;&amp;lt;constraint&amp;gt;&amp;gt;&lt;br&gt;&lt;b&gt;Objektgröße&lt;/b&gt;&lt;/p&gt;&lt;hr&gt;&lt;p style=&quot;font-size:10px;margin:0px;margin-top:4px;text-align:center;&quot;&gt;&lt;i&gt;constraints&lt;/i&gt;&lt;/p&gt;&lt;p style=&quot;margin:0px;margin-top:4px;margin-left:10px;text-align:left;&quot;&gt;{IF h &amp;gt; 0,1 THEN result = true}&lt;br&gt;&lt;/p&gt;&lt;hr&gt;&lt;p style=&quot;font-size:10px;margin:0px;margin-top:4px;text-align:center;&quot;&gt;&lt;i&gt;parameters&lt;/i&gt;&lt;/p&gt;&lt;p style=&quot;margin:0px;margin-top:4px;margin-left:10px;text-align:left;&quot;&gt;h: Meter&lt;br&gt;&lt;/p&gt;" style="shape=rect;html=1;overflow=fill;whiteSpace=wrap;" vertex="1" parent="1">
          <mxGeometry x="60" y="80" width="200" height="140" as="geometry" />
        </mxCell>
        <mxCell id="WeHE-zejKHq6CL1Z7IIi-8" value="&lt;p style=&quot;margin: 4px 0px 0px;&quot;&gt;&amp;lt;&amp;lt;constraint&amp;gt;&amp;gt;&lt;br&gt;&lt;b&gt;Entfernung&lt;/b&gt;&lt;/p&gt;&lt;hr&gt;&lt;p style=&quot;font-size: 10px; margin: 4px 0px 0px;&quot;&gt;&lt;i&gt;constraints&lt;/i&gt;&lt;/p&gt;&lt;p style=&quot;margin: 4px 0px 0px 10px; text-align: left;&quot;&gt;{IF d &amp;lt; 100 THEN result = true}&lt;br&gt;&lt;/p&gt;&lt;hr&gt;&lt;p style=&quot;font-size: 10px; margin: 4px 0px 0px;&quot;&gt;&lt;i&gt;parameters&lt;/i&gt;&lt;/p&gt;&lt;p style=&quot;margin: 4px 0px 0px 10px; text-align: left;&quot;&gt;d: Meter&lt;/p&gt;" style="shape=rect;html=1;overflow=fill;whiteSpace=wrap;" vertex="1" parent="1">
          <mxGeometry x="320" y="80" width="200" height="140" as="geometry" />
        </mxCell>
        <mxCell id="WeHE-zejKHq6CL1Z7IIi-9" value="&lt;p style=&quot;margin: 4px 0px 0px;&quot;&gt;&amp;lt;&amp;lt;constraint&amp;gt;&amp;gt;&lt;br&gt;&lt;b&gt;Relative Geschwindigkeit&lt;/b&gt;&lt;/p&gt;&lt;hr&gt;&lt;p style=&quot;font-size: 10px; margin: 4px 0px 0px;&quot;&gt;&lt;i&gt;constraints&lt;/i&gt;&lt;/p&gt;&lt;p style=&quot;margin: 4px 0px 0px 10px; text-align: left;&quot;&gt;{IF v &amp;lt; 0 THEN result = true}&lt;br&gt;&lt;/p&gt;&lt;hr&gt;&lt;p style=&quot;font-size: 10px; margin: 4px 0px 0px;&quot;&gt;&lt;i&gt;parameters&lt;/i&gt;&lt;/p&gt;&lt;p style=&quot;margin: 4px 0px 0px 10px; text-align: left;&quot;&gt;v: Meter/Sekunde&lt;/p&gt;" style="shape=rect;html=1;overflow=fill;whiteSpace=wrap;" vertex="1" parent="1">
          <mxGeometry x="560" y="80" width="200" height="140" as="geometry" />
        </mxCell>
        <mxCell id="WeHE-zejKHq6CL1Z7IIi-10" value="&lt;p style=&quot;margin: 4px 0px 0px;&quot;&gt;&amp;lt;&amp;lt;constraint&amp;gt;&amp;gt;&lt;br&gt;&lt;b&gt;Objekttyp&lt;/b&gt;&lt;/p&gt;&lt;hr&gt;&lt;p style=&quot;font-size: 10px; margin: 4px 0px 0px;&quot;&gt;&lt;i&gt;constraints&lt;/i&gt;&lt;/p&gt;&lt;p style=&quot;margin: 4px 0px 0px 10px; text-align: left;&quot;&gt;{IF o = Metall or Glas or Stein Then result = true}&lt;br&gt;&lt;/p&gt;&lt;hr&gt;&lt;p style=&quot;font-size: 10px; margin: 4px 0px 0px;&quot;&gt;&lt;i&gt;parameters&lt;/i&gt;&lt;/p&gt;&lt;p style=&quot;margin: 4px 0px 0px 10px; text-align: left;&quot;&gt;o: {Metall, Glas, Stein, Schnee, Laub, Tier}&lt;/p&gt;" style="shape=rect;html=1;overflow=fill;whiteSpace=wrap;" vertex="1" parent="1">
          <mxGeometry x="800" y="80" width="200" height="170" as="geometry" />
        </mxCell>
        <mxCell id="WeHE-zejKHq6CL1Z7IIi-11" value="&lt;p style=&quot;margin:0px;margin-top:4px;text-align:center;&quot;&gt;&amp;lt;&amp;lt;constraint&amp;gt;&amp;gt;&lt;br&gt;&lt;b&gt;Or&lt;/b&gt;&lt;/p&gt;&lt;hr&gt;&lt;p style=&quot;font-size:10px;margin:0px;margin-top:4px;text-align:center;&quot;&gt;&lt;i&gt;constraints&lt;/i&gt;&lt;/p&gt;&lt;p style=&quot;margin:0px;margin-top:4px;margin-left:10px;text-align:left;&quot;&gt;{IF a or b = true THEN result = true}&lt;br&gt;&lt;/p&gt;&lt;hr&gt;&lt;p style=&quot;font-size:10px;margin:0px;margin-top:4px;text-align:center;&quot;&gt;&lt;i&gt;parameters&lt;/i&gt;&lt;/p&gt;&lt;p style=&quot;margin:0px;margin-top:4px;margin-left:10px;text-align:left;&quot;&gt;a: bool&lt;br&gt;&lt;/p&gt;&lt;p style=&quot;margin:0px;margin-top:4px;margin-left:10px;text-align:left;&quot;&gt;b: bool&lt;br&gt;&lt;/p&gt;" style="shape=rect;html=1;overflow=fill;whiteSpace=wrap;" vertex="1" parent="1">
          <mxGeometry x="60" y="280" width="200" height="150" as="geometry" />
        </mxCell>
        <mxCell id="WeHE-zejKHq6CL1Z7IIi-12" value="&lt;p style=&quot;margin:0px;margin-top:4px;text-align:center;&quot;&gt;&amp;lt;&amp;lt;constraint&amp;gt;&amp;gt;&lt;br&gt;&lt;b&gt;Entscheidung - Notbremsung&lt;/b&gt;&lt;/p&gt;&lt;hr&gt;&lt;p style=&quot;font-size:10px;margin:0px;margin-top:4px;text-align:center;&quot;&gt;&lt;i&gt;constraints&lt;/i&gt;&lt;/p&gt;&lt;p style=&quot;margin:0px;margin-top:4px;margin-left:10px;text-align:left;&quot;&gt;{IF a = true THEN result = yes}&lt;br&gt;&lt;/p&gt;&lt;hr&gt;&lt;p style=&quot;font-size:10px;margin:0px;margin-top:4px;text-align:center;&quot;&gt;&lt;i&gt;parameters&lt;/i&gt;&lt;/p&gt;&lt;p style=&quot;margin:0px;margin-top:4px;margin-left:10px;text-align:left;&quot;&gt;a: bool&lt;/p&gt;" style="shape=rect;html=1;overflow=fill;whiteSpace=wrap;" vertex="1" parent="1">
          <mxGeometry x="560" y="280" width="200" height="140" as="geometry" />
        </mxCell>
        <mxCell id="WeHE-zejKHq6CL1Z7IIi-13" value="&lt;p style=&quot;margin:0px;margin-top:4px;text-align:center;&quot;&gt;&amp;lt;&amp;lt;constraint&amp;gt;&amp;gt;&lt;br&gt;&lt;b&gt;And&lt;/b&gt;&lt;/p&gt;&lt;hr&gt;&lt;p style=&quot;font-size:10px;margin:0px;margin-top:4px;text-align:center;&quot;&gt;&lt;i&gt;constraints&lt;/i&gt;&lt;/p&gt;&lt;p style=&quot;margin:0px;margin-top:4px;margin-left:10px;text-align:left;&quot;&gt;{IF a and b = true THEN result = true}&lt;br&gt;&lt;/p&gt;&lt;hr&gt;&lt;p style=&quot;font-size:10px;margin:0px;margin-top:4px;text-align:center;&quot;&gt;&lt;i&gt;parameters&lt;/i&gt;&lt;/p&gt;&lt;p style=&quot;margin:0px;margin-top:4px;margin-left:10px;text-align:left;&quot;&gt;a: bool&lt;br&gt;&lt;/p&gt;&lt;p style=&quot;margin:0px;margin-top:4px;margin-left:10px;text-align:left;&quot;&gt;b: bool&lt;br&gt;&lt;/p&gt;" style="shape=rect;html=1;overflow=fill;whiteSpace=wrap;" vertex="1" parent="1">
          <mxGeometry x="320" y="280" width="200" height="160" as="geometry" />
        </mxCell>
        <mxCell id="WeHE-zejKHq6CL1Z7IIi-14" value="&lt;p style=&quot;margin: 4px 0px 0px;&quot;&gt;&amp;lt;&amp;lt;constraint&amp;gt;&amp;gt;&lt;br&gt;&lt;b&gt;Kollisionskurs&lt;/b&gt;&lt;/p&gt;&lt;hr&gt;&lt;p style=&quot;font-size: 10px; margin: 4px 0px 0px;&quot;&gt;&lt;i&gt;constraints&lt;/i&gt;&lt;/p&gt;&lt;p style=&quot;margin: 4px 0px 0px 10px; text-align: left;&quot;&gt;{IF v u. p schneiden THEN result = true}&lt;br&gt;&lt;/p&gt;&lt;hr&gt;&lt;p style=&quot;font-size: 10px; margin: 4px 0px 0px;&quot;&gt;&lt;i&gt;parameters&lt;/i&gt;&lt;/p&gt;&lt;p style=&quot;margin: 4px 0px 0px 10px; text-align: left;&quot;&gt;v: vector&lt;/p&gt;&lt;p style=&quot;margin: 4px 0px 0px 10px; text-align: left;&quot;&gt;v1: vector&lt;/p&gt;&lt;p style=&quot;margin: 4px 0px 0px 10px; text-align: left;&quot;&gt;p: position&lt;/p&gt;&lt;p style=&quot;margin: 4px 0px 0px 10px; text-align: left;&quot;&gt;p1: position&lt;/p&gt;" style="shape=rect;html=1;overflow=fill;whiteSpace=wrap;" vertex="1" parent="1">
          <mxGeometry x="800" y="275" width="200" height="195" as="geometry" />
        </mxCell>
        <mxCell id="WeHE-zejKHq6CL1Z7IIi-15" value="&lt;p style=&quot;margin: 4px 0px 0px;&quot;&gt;&amp;lt;&amp;lt;constraint&amp;gt;&amp;gt;&lt;br&gt;&lt;b&gt;Bremsweg&lt;/b&gt;&lt;/p&gt;&lt;hr&gt;&lt;p style=&quot;font-size: 10px; margin: 4px 0px 0px;&quot;&gt;&lt;i&gt;constraints&lt;/i&gt;&lt;/p&gt;&lt;p style=&quot;margin: 4px 0px 0px 10px; text-align: left;&quot;&gt;{result = ...}&lt;br&gt;&lt;/p&gt;&lt;hr&gt;&lt;p style=&quot;font-size: 10px; margin: 4px 0px 0px;&quot;&gt;&lt;i&gt;parameters&lt;/i&gt;&lt;/p&gt;&lt;p style=&quot;margin: 4px 0px 0px 10px; text-align: left;&quot;&gt;v: Meter/Sekunde&lt;/p&gt;" style="shape=rect;html=1;overflow=fill;whiteSpace=wrap;" vertex="1" parent="1">
          <mxGeometry x="60" y="480" width="200" height="150" as="geometry" />
        </mxCell>
        <mxCell id="WeHE-zejKHq6CL1Z7IIi-16" value="&lt;p style=&quot;margin: 4px 0px 0px;&quot;&gt;&amp;lt;&amp;lt;constraint&amp;gt;&amp;gt;&lt;br&gt;&lt;b&gt;Kritischer Bremsweg&lt;/b&gt;&lt;/p&gt;&lt;hr&gt;&lt;p style=&quot;font-size: 10px; margin: 4px 0px 0px;&quot;&gt;&lt;i&gt;constraints&lt;/i&gt;&lt;/p&gt;&lt;p style=&quot;margin: 4px 0px 0px 10px; text-align: left;&quot;&gt;{IF w ... Then result = true}&lt;br&gt;&lt;/p&gt;&lt;hr&gt;&lt;p style=&quot;font-size: 10px; margin: 4px 0px 0px;&quot;&gt;&lt;i&gt;parameters&lt;/i&gt;&lt;/p&gt;&lt;p style=&quot;margin: 4px 0px 0px 10px; text-align: left;&quot;&gt;w: Meter&lt;/p&gt;&lt;p style=&quot;margin: 4px 0px 0px 10px; text-align: left;&quot;&gt;e : Meter&lt;/p&gt;" style="shape=rect;html=1;overflow=fill;whiteSpace=wrap;" vertex="1" parent="1">
          <mxGeometry x="320" y="480" width="200" height="150" as="geometry" />
        </mxCell>
        <mxCell id="WeHE-zejKHq6CL1Z7IIi-17" value="&lt;p style=&quot;margin: 4px 0px 0px;&quot;&gt;&amp;lt;&amp;lt;constraint&amp;gt;&amp;gt;&lt;br&gt;&lt;b&gt;Relative Geschwindigkeit&lt;/b&gt;&lt;/p&gt;&lt;hr&gt;&lt;p style=&quot;font-size: 10px; margin: 4px 0px 0px;&quot;&gt;&lt;i&gt;constraints&lt;/i&gt;&lt;/p&gt;&lt;p style=&quot;margin: 4px 0px 0px 10px; text-align: left;&quot;&gt;{IF w ... Then result = true}&lt;br&gt;&lt;/p&gt;&lt;hr&gt;&lt;p style=&quot;font-size: 10px; margin: 4px 0px 0px;&quot;&gt;&lt;i&gt;parameters&lt;/i&gt;&lt;/p&gt;&lt;p style=&quot;margin: 4px 0px 0px 10px; text-align: left;&quot;&gt;a: Meter&lt;/p&gt;" style="shape=rect;html=1;overflow=fill;whiteSpace=wrap;" vertex="1" parent="1">
          <mxGeometry x="560" y="480" width="200" height="150" as="geometry" />
        </mxCell>
        <mxCell id="WeHE-zejKHq6CL1Z7IIi-18" value="&lt;p style=&quot;margin:0px;margin-top:4px;text-align:center;&quot;&gt;&amp;lt;&amp;lt;constraint&amp;gt;&amp;gt;&lt;br&gt;&lt;b&gt;Objektgröße gefährliche Objekte&lt;/b&gt;&lt;/p&gt;&lt;hr&gt;&lt;p style=&quot;font-size:10px;margin:0px;margin-top:4px;text-align:center;&quot;&gt;&lt;i&gt;constraints&lt;/i&gt;&lt;/p&gt;&lt;p style=&quot;margin:0px;margin-top:4px;margin-left:10px;text-align:left;&quot;&gt;{IF h &amp;gt; 0,01 THEN result = true}&lt;br&gt;&lt;/p&gt;&lt;hr&gt;&lt;p style=&quot;font-size:10px;margin:0px;margin-top:4px;text-align:center;&quot;&gt;&lt;i&gt;parameters&lt;/i&gt;&lt;/p&gt;&lt;p style=&quot;margin:0px;margin-top:4px;margin-left:10px;text-align:left;&quot;&gt;h: Meter&lt;br&gt;&lt;/p&gt;" style="shape=rect;html=1;overflow=fill;whiteSpace=wrap;" vertex="1" parent="1">
          <mxGeometry x="800" y="480" width="200" height="140" as="geometry" />
        </mxCell>
      </root>
    </mxGraphModel>
  </diagram>
</mxfile>
